# xmcd CD database file
#
# Track frame offsets:
#	150
#	18505
#	37427
#	53260
#	70475
#	87370
#	104545
#	131840
#	151985
#	169185
#	182645
#	211365
#
# Disc length: 3344 seconds
#
# Revision: 3
# Processed by: cddbd v1.4PL0 Copyright (c) Steve Scherf et al.
# Submitted via: CDex 1.50beta10
#
DISCID=aa0d0e0c
DTITLE=Walter "Wolfman" Washington - Blue Moon Risin'
DYEAR=1995
DGENRE=Blues
TTITLE0=Stop and Think
TTITLE1=Glasshouse
TTITLE2=You're Fine
TTITLE3=Blues Has Got To Go
TTITLE4=I Had a Dream
TTITLE5=Fever
TTITLE6=Blue Moon Risin'
TTITLE7=Use Me
TTITLE8=Can't Stop Loving You
TTITLE9=Cadillac Woman
TTITLE10=He Will See Us Thru
TTITLE11=Drown
EXTD=YEAR: 1995
EXTT0=
EXTT1=
EXTT2=
EXTT3=
EXTT4=
EXTT5=
EXTT6=
EXTT7=
EXTT8=
EXTT9=
EXTT10=
EXTT11=
PLAYORDER=
